<?xml version="1.0" standalone="no"?>
<!DOCTYPE svg PUBLIC "-//W3C//DTD SVG 20010904//EN"
 "http://www.w3.org/TR/2001/REC-SVG-20010904/DTD/svg10.dtd">
<svg version="1.0" xmlns="http://www.w3.org/2000/svg"
 width="10000.000000pt" height="5000.000000pt" viewBox="0 0 10000.000000 5000.000000"
 preserveAspectRatio="xMidYMid meet">

<g transform="translate(0.000000,5000.000000) scale(0.100000,-0.100000)"
fill="#000000" stroke="none">
<path d="M14405 38359 c-2978 -82 -6174 -588 -9225 -1460 -495 -142 -851 -251
-1387 -425 l-323 -105 0 -1007 c0 -951 -7 -3269 -30 -9372 -9 -2305 -12 -2674
-26 -2870 -22 -286 -25 -921 -6 -1135 51 -582 158 -1098 341 -1645 74 -222
152 -402 316 -731 796 -1590 2090 -3173 3773 -4616 114 -97 286 -247 382 -333
1279 -1142 2926 -2324 5255 -3775 544 -339 1469 -899 1906 -1153 l106 -62 217
115 c1863 985 4063 2507 6836 4729 498 400 816 691 1481 1355 864 864 1498
1607 2041 2391 663 957 1062 1800 1259 2662 l31 133 4 815 c3 448 1 968 -3
1155 l-8 340 -74 -215 c-200 -584 -449 -1247 -618 -1645 -78 -184 -466 -953
-634 -1255 -526 -948 -1074 -1728 -1687 -2400 -58 -63 -230 -239 -381 -390
-152 -151 -400 -401 -551 -556 -278 -284 -443 -440 -753 -717 -1130 -1006
-2703 -2195 -4847 -3662 -564 -386 -2176 -1457 -2208 -1468 -4 -1 -91 44 -192
99 -102 56 -320 175 -485 264 -942 509 -1730 1012 -2745 1748 -1143 830 -2613
2018 -4040 3266 -913 798 -1611 1583 -2193 2466 -744 1129 -1175 2270 -1292
3421 -26 256 -33 541 -24 904 5 187 14 1656 20 3265 5 1609 14 3744 20 4745 5
1001 9 2378 8 3060 l0 1240 183 68 c1095 406 2507 785 3922 1052 1684 318
3367 500 5316 576 439 17 1998 23 2460 10 2960 -84 5773 -544 8575 -1403 295
-90 1017 -327 1027 -337 3 -3 11 -1917 17 -4253 l11 -4246 481 -834 c264 -458
492 -845 507 -860 31 -34 66 -36 86 -5 8 12 19 51 25 87 6 41 12 1399 15 3625
3 1958 9 4404 12 5436 l7 1876 -84 32 c-426 163 -1134 392 -1794 581 -2043
584 -4292 1010 -6515 1234 -1538 156 -3162 222 -4515 185z"/>
<path d="M10830 34569 c-130 -11 -247 -28 -360 -50 -73 -15 -106 -27 -148 -56
-78 -54 -214 -200 -236 -253 -10 -25 -34 -81 -54 -125 -48 -109 -134 -374
-171 -525 -184 -754 -165 -1518 53 -2181 160 -488 412 -911 787 -1319 122
-133 121 -134 -37 -29 -298 199 -551 492 -630 729 -10 30 -20 57 -21 58 -4 8
-225 -59 -315 -94 -446 -174 -897 -500 -1393 -1005 -374 -380 -732 -823 -1112
-1374 -286 -414 -449 -705 -679 -1213 -461 -1017 -764 -2137 -968 -3582 -83
-586 -89 -654 -83 -935 6 -258 15 -326 54 -401 11 -22 35 -47 55 -58 35 -19
36 -19 84 -1 82 31 165 127 348 403 303 458 585 804 850 1041 113 101 273 227
280 220 2 -2 -18 -44 -46 -94 -286 -513 -483 -1026 -572 -1490 -47 -245 -59
-388 -58 -695 0 -505 47 -928 144 -1314 69 -276 154 -486 274 -676 33 -52 93
-151 134 -220 507 -866 1220 -1657 2133 -2369 170 -132 219 -163 271 -168 39
-5 46 -3 61 21 27 42 15 105 -69 365 -294 900 -489 1828 -561 2666 -15 175
-38 716 -30 723 5 6 18 -44 75 -303 214 -969 469 -1723 829 -2451 199 -403
303 -575 596 -985 397 -553 796 -1039 1154 -1403 173 -175 251 -247 640 -589
464 -408 992 -784 1566 -1117 88 -51 205 -119 260 -150 103 -60 177 -90 221
-90 15 0 38 13 56 31 29 29 30 33 26 97 -4 45 -39 179 -106 402 -238 789 -420
1316 -761 2200 l-21 55 57 -64 c371 -412 892 -1153 1350 -1921 456 -763 625
-1122 850 -1800 57 -173 124 -357 149 -409 52 -111 41 -110 191 -19 539 326
1088 930 1528 1683 176 300 255 482 319 727 109 419 94 840 -45 1253 -40 118
-172 386 -246 500 -33 50 -156 221 -274 380 -605 814 -977 1381 -1253 1908
-101 192 -161 327 -277 624 -186 476 -308 849 -410 1251 -64 256 -91 321 -166
395 -49 49 -67 60 -252 142 -235 106 -533 275 -804 457 -1041 701 -1787 1622
-2174 2683 -105 289 -165 526 -208 820 -46 319 -55 436 -55 715 0 434 60 807
192 1190 64 183 215 530 232 530 2 0 -19 -89 -46 -197 -64 -260 -112 -501
-139 -698 -32 -233 -32 -638 0 -845 38 -248 100 -472 182 -666 22 -50 57 -147
78 -215 222 -706 595 -1333 1085 -1823 563 -562 1241 -917 2066 -1080 69 -14
186 -41 260 -60 157 -42 247 -54 278 -37 69 37 -31 150 -356 399 -549 422
-1048 1017 -1483 1770 -98 168 -229 413 -229 427 0 4 82 -73 183 -171 224
-220 378 -361 567 -519 596 -496 1232 -862 1944 -1119 386 -140 885 -468 1391
-917 513 -454 1038 -1022 1647 -1783 351 -439 543 -604 893 -772 128 -61 278
-116 405 -148 440 -110 867 -204 1095 -241 278 -46 476 -103 552 -161 52 -40
65 -67 74 -160 17 -187 121 -254 299 -191 150 53 454 290 735 572 474 475 766
974 860 1469 22 116 48 449 41 528 -11 120 -53 200 -126 239 -35 18 -534 23
-885 9 -664 -26 -1493 -104 -2465 -231 -124 -16 -234 -29 -244 -29 -13 0 1 14
38 40 117 82 258 161 542 303 160 80 326 167 370 192 110 65 521 193 784 244
141 28 309 48 455 56 66 4 145 11 175 16 30 5 161 22 290 39 129 17 280 40
335 51 384 80 784 301 1178 653 59 53 107 93 107 90 0 -4 -29 -71 -65 -150
-83 -184 -114 -277 -128 -383 -9 -77 -8 -97 12 -191 49 -227 96 -326 169 -357
33 -14 42 -14 87 1 94 29 209 147 428 440 503 673 811 1316 882 1841 9 66 23
154 31 195 24 119 28 254 11 336 -17 77 -54 174 -68 174 -23 0 -260 -95 -329
-131 -96 -51 -255 -169 -368 -272 l-83 -76 -41 15 c-52 18 -198 96 -198 105 0
3 7 22 15 41 l14 35 -257 163 c-977 619 -1002 637 -1101 786 -50 74 -91 167
-91 205 0 17 5 20 23 16 92 -23 652 -78 1552 -152 369 -30 727 -62 798 -71 70
-10 131 -14 135 -10 13 14 -200 375 -391 660 -802 1204 -1813 2263 -2904 3042
-81 59 -151 111 -155 118 -14 20 -2 1066 16 1388 l4 76 -93 124 c-545 724
-1380 1487 -2280 2083 -1317 872 -2807 1447 -4428 1710 -667 108 -1373 165
-2040 165 l-247 0 133 -167 c381 -478 617 -871 802 -1331 31 -79 55 -146 52
-148 -2 -3 -46 62 -98 143 -328 522 -626 836 -1085 1141 -240 159 -325 198
-709 328 -781 262 -1574 384 -2165 333z m450 -1352 c588 -585 1090 -1026 1793
-1574 131 -102 236 -187 234 -190 -3 -2 -105 38 -228 90 -627 264 -1205 457
-1504 502 -260 39 -317 4 -323 -201 -8 -223 81 -514 334 -1099 175 -406 196
-456 191 -462 -7 -7 -92 121 -177 267 -454 782 -700 1730 -700 2700 0 181 6
330 14 330 1 0 165 -163 366 -363z m8485 -3732 c737 -197 1341 -359 1342 -360
1 0 -9 -28 -22 -62 -115 -283 14 -653 351 -1012 43 -47 75 -82 69 -79 -5 4
-55 36 -110 73 -316 211 -580 262 -872 168 -75 -24 -86 -26 -135 -14 -84 18
-172 76 -284 186 -120 118 -232 266 -346 459 l-83 138 -110 83 c-253 189 -628
442 -921 621 -89 55 -186 114 -215 132 -38 24 -47 32 -29 29 14 -2 628 -165
1365 -362z"/>
<path d="M58780 32770 c-548 -52 -1026 -230 -1421 -526 -323 -244 -587 -593
-743 -982 -59 -146 -73 -201 -102 -402 -97 -668 -25 -1299 201 -1768 81 -168
141 -260 292 -447 309 -384 765 -808 1238 -1151 465 -336 849 -680 1047 -934
128 -166 284 -427 349 -585 91 -224 130 -425 129 -673 0 -509 -181 -908 -510
-1127 -115 -77 -215 -124 -373 -176 -101 -33 -130 -39 -206 -39 -295 0 -627
140 -961 406 -141 112 -365 346 -456 474 -182 258 -371 584 -540 927 -106 217
-129 248 -175 241 -12 -2 -30 -14 -40 -28 -17 -23 -18 -103 -29 -1304 -6 -703
-8 -1281 -5 -1284 10 -10 665 -159 971 -221 499 -100 726 -126 1119 -126 297
1 411 10 645 51 433 78 868 275 1206 547 111 90 286 275 367 388 135 189 353
668 451 992 83 274 95 403 96 1015 0 349 -2 391 -21 480 -132 623 -483 1221
-977 1665 -297 267 -707 577 -1237 934 -271 183 -349 245 -525 422 -204 205
-347 389 -484 623 -55 94 -58 104 -91 270 -76 383 -66 646 30 864 34 76 148
234 226 313 166 166 383 273 608 299 166 19 466 -16 616 -73 190 -71 324 -164
522 -362 321 -321 549 -648 613 -878 40 -142 91 -272 116 -296 20 -19 36 -24
82 -24 l57 0 3 1106 2 1106 -113 31 c-416 117 -824 196 -1217 237 -181 19
-623 28 -760 15z"/>
<path d="M31920 32609 c-619 -15 -1187 -28 -1262 -28 -151 -1 -168 -7 -168
-62 0 -47 26 -76 113 -121 156 -83 319 -270 413 -474 26 -54 426 -1416 1289
-4382 688 -2366 1255 -4305 1258 -4308 3 -4 339 -3 745 1 l739 7 201 697 c111
383 460 1594 777 2691 874 3028 1390 4819 1435 4984 49 177 77 247 137 341 71
110 144 186 271 283 212 162 290 275 235 340 -18 20 -26 21 -1088 24 -1011 3
-1072 2 -1103 -15 -83 -45 -62 -114 84 -268 77 -82 112 -129 139 -182 90 -185
96 -383 21 -674 -18 -70 -197 -751 -398 -1513 -201 -762 -542 -2061 -759
-2887 -246 -940 -397 -1496 -401 -1485 -11 25 -1270 4591 -1578 5721 -131 478
-132 485 -128 570 5 94 29 167 89 268 46 76 184 220 283 295 45 34 80 64 79
68 -1 4 -21 37 -44 74 l-41 66 -107 -1 c-58 -1 -612 -14 -1231 -30z"/>
<path d="M73957 31738 c-4 -496 -7 -1035 -7 -1199 l0 -297 40 -16 c74 -29 173
-41 221 -27 56 17 95 60 104 114 13 76 85 269 150 403 245 505 637 831 1117
928 114 24 312 38 406 31 l82 -7 0 -181 c0 -100 -4 -1770 -10 -3712 -7 -2483
-13 -3552 -21 -3605 -39 -265 -194 -516 -422 -684 -84 -62 -123 -119 -108
-160 12 -33 66 -63 134 -75 44 -8 459 -11 1359 -11 1153 0 1300 2 1348 16 54
16 110 60 110 87 0 34 -54 86 -180 173 -229 158 -326 259 -400 419 -76 162
-70 -205 -70 3969 l0 3745 58 7 c31 4 114 2 185 -5 364 -34 680 -184 942 -448
183 -184 369 -475 395 -620 48 -271 170 -405 337 -374 26 6 55 12 64 16 14 5
16 70 22 598 4 326 7 868 7 1205 l0 612 -2928 0 -2929 0 -6 -902z"/>
<path d="M49338 32553 l-138 -76 38 -25 c128 -87 243 -219 308 -357 68 -145
79 -195 78 -385 -1 -145 -4 -176 -26 -260 -62 -226 -1857 -7143 -1873 -7213
-72 -331 -240 -613 -418 -703 -96 -49 -187 -155 -187 -218 0 -38 45 -83 106
-106 56 -20 65 -20 958 -18 l901 3 54 22 c82 34 101 56 101 120 0 81 -22 121
-99 187 -144 122 -211 257 -210 421 0 77 -6 51 208 983 99 435 181 794 181
797 0 3 517 5 1149 5 l1148 0 58 -202 c157 -559 283 -1039 331 -1263 19 -88
20 -238 4 -345 -21 -130 -108 -271 -252 -405 -96 -88 -130 -135 -131 -180 -1
-45 24 -79 78 -105 l45 -22 1247 -9 1247 -10 79 79 78 79 -78 45 c-284 166
-524 422 -593 633 -19 59 -2121 8133 -2161 8303 -12 47 -31 107 -44 132 -38
75 -111 136 -185 153 -14 3 -439 9 -945 12 l-920 5 -137 -77z m1537 -4019
c233 -995 422 -1810 420 -1813 -6 -5 -1694 15 -1700 20 -3 3 664 2849 840
3588 3 13 8 21 11 18 3 -2 196 -818 429 -1813z"/>
<path d="M38495 32550 c-32 -33 -57 -61 -54 -63 2 -2 40 -30 84 -63 103 -77
262 -230 326 -313 65 -86 125 -211 138 -286 6 -39 13 -1288 18 -3565 11 -4620
12 -4098 -15 -4200 -62 -237 -211 -434 -437 -581 -136 -88 -153 -101 -172
-137 -22 -40 -13 -59 43 -87 37 -19 66 -20 494 -26 250 -4 856 -7 1345 -8
l890 -1 59 33 c68 38 101 75 92 103 -4 11 -57 53 -118 94 -135 91 -305 255
-373 360 -65 101 -113 213 -138 329 l-22 96 0 3700 0 3700 29 75 c126 328 301
553 541 696 173 103 186 139 64 181 l-64 22 -1335 1 -1336 0 -59 -60z"/>
<path d="M41877 31708 c-4 -496 -7 -1035 -7 -1199 l0 -297 40 -16 c74 -29 173
-41 221 -27 56 17 95 60 104 114 13 76 85 269 150 403 245 505 637 831 1117
928 114 24 312 38 406 31 l82 -7 0 -181 c0 -100 -4 -1770 -10 -3712 -7 -2483
-13 -3552 -21 -3605 -39 -265 -194 -516 -422 -684 -84 -62 -123 -119 -108
-160 12 -33 66 -63 134 -75 44 -8 459 -11 1359 -11 1153 0 1300 2 1348 16 54
16 110 60 110 87 0 34 -54 86 -180 173 -229 158 -326 259 -400 419 -76 162
-70 -205 -70 3969 l0 3745 58 7 c31 4 114 2 185 -5 364 -34 680 -184 942 -448
183 -184 369 -475 395 -620 48 -271 170 -405 337 -374 26 6 55 12 64 16 14 5
16 71 22 607 4 331 7 873 7 1205 l0 603 -2928 0 -2929 0 -6 -902z"/>
<path d="M63305 32560 c-1279 -5 -1305 -6 -1305 -40 0 -14 30 -39 74 -62 139
-71 311 -221 423 -368 35 -47 91 -138 123 -203 l60 -118 0 -3871 0 -3870 -40
-80 c-98 -196 -225 -341 -406 -465 -117 -80 -144 -112 -144 -168 0 -60 -156
-57 2420 -46 l2349 9 61 -24 c33 -14 82 -28 109 -31 41 -5 52 -2 70 16 l21 21
0 965 0 965 -28 0 c-58 0 -133 -76 -222 -225 -102 -168 -299 -382 -454 -492
-103 -73 -302 -176 -436 -226 -92 -34 -101 -35 -310 -46 -307 -15 -442 -20
-810 -31 -179 -5 -378 -13 -442 -16 -116 -6 -117 -6 -142 19 l-26 26 0 1760 0
1761 24 15 c21 14 73 16 388 16 382 0 543 -8 798 -41 173 -23 263 -46 360 -95
132 -67 220 -149 298 -280 93 -157 216 -344 242 -367 57 -52 112 -34 155 51
16 31 17 131 22 1284 6 1227 6 1250 -13 1243 -37 -14 -126 -72 -176 -114 -63
-53 -117 -121 -151 -187 -34 -67 -227 -269 -334 -349 -47 -35 -133 -91 -192
-124 l-106 -60 -641 -8 -641 -7 -22 22 -22 22 7 1462 c7 1543 6 1494 50 1511
13 5 807 -15 1164 -29 201 -9 268 -18 387 -56 384 -122 713 -406 919 -793 74
-140 156 -204 205 -160 19 17 19 41 19 956 l0 938 -1212 -2 c-667 -2 -1780 -5
-2473 -8z"/>
<path d="M68153 32476 l-72 -94 87 -31 c177 -64 328 -219 443 -458 l41 -84 10
-1912 c5 -1052 8 -2819 6 -3927 l-3 -2015 -47 -95 c-71 -145 -240 -335 -425
-478 -43 -33 -62 -67 -46 -83 4 -4 603 -17 1331 -29 1309 -20 1323 -20 1350
-1 15 10 40 32 55 48 l28 30 -73 36 c-138 68 -307 193 -400 296 -28 31 -75 93
-105 138 -98 150 -91 103 -103 669 -25 1210 -39 2350 -30 2385 19 69 32 74
177 59 158 -17 512 -17 653 -1 598 68 1087 263 1520 607 214 170 474 464 607
685 201 334 323 741 379 1259 22 199 25 741 6 875 -70 485 -243 896 -528 1255
-94 119 -290 310 -411 403 -358 272 -765 446 -1118 477 -110 9 -489 21 -1340
40 -517 12 -1845 40 -1890 40 -26 0 -39 -12 -102 -94z m2575 -802 c528 -78
925 -455 1139 -1079 76 -223 133 -514 133 -685 0 -47 -5 -137 -11 -200 -88
-974 -458 -1587 -1082 -1795 -178 -59 -250 -70 -464 -70 -105 0 -195 3 -199 7
-8 8 -40 3806 -32 3813 25 26 367 32 516 9z"/>
<path d="M87441 32548 c-859 -7 -937 -9 -970 -26 -44 -21 -51 -53 -19 -85 13
-13 70 -52 128 -87 226 -139 338 -289 415 -555 l26 -90 -31 -3750 c-33 -4132
-26 -3820 -95 -3991 -77 -191 -259 -403 -462 -537 -127 -83 -149 -114 -95
-135 21 -9 1642 -32 2199 -32 58 0 63 2 108 43 l47 42 -83 65 c-182 142 -362
346 -428 483 l-30 62 -5 3060 c-4 1929 -2 3051 4 3035 5 -14 442 -1413 970
-3110 l961 -3084 121 -279 122 -279 225 7 c124 4 228 9 230 11 2 2 472 1501
1043 3332 571 1830 1050 3361 1063 3402 l25 75 -5 -2215 c-3 -1218 -8 -2594
-11 -3057 l-6 -842 -65 -109 c-114 -193 -236 -340 -388 -469 -57 -48 -60 -52
-60 -96 0 -25 3 -48 6 -51 3 -3 594 -17 1314 -31 l1309 -26 59 59 59 59 -69
40 c-278 166 -498 422 -572 668 l-21 70 2 3665 3 3665 32 110 c116 405 299
690 548 855 64 42 105 80 105 97 0 7 -11 20 -25 29 -22 15 -123 15 -1167 9
l-1143 -7 -56 -57 c-90 -92 -123 -173 -253 -616 -183 -623 -804 -2757 -1181
-4055 -191 -657 -349 -1197 -352 -1200 -2 -2 -42 34 -88 80 l-84 85 -881 2810
c-484 1546 -892 2845 -906 2888 l-26 77 -306 -2 c-169 -1 -727 -5 -1241 -10z"/>
<path d="M81725 32520 c-1279 -5 -1305 -6 -1305 -40 0 -14 30 -39 74 -62 139
-71 311 -221 423 -368 35 -47 91 -138 123 -203 l60 -118 0 -3871 0 -3870 -40
-80 c-98 -196 -225 -341 -406 -465 -117 -80 -144 -112 -144 -168 0 -60 -156
-57 2420 -46 l2349 9 61 -24 c33 -14 82 -28 109 -31 41 -5 52 -2 70 16 l21 21
0 965 0 965 -28 0 c-59 0 -142 -86 -232 -240 -86 -148 -294 -371 -444 -477
-103 -73 -302 -176 -436 -226 -92 -34 -101 -35 -310 -46 -307 -15 -442 -20
-810 -31 -179 -5 -378 -13 -442 -16 -116 -6 -117 -6 -142 19 l-26 26 0 1760 0
1761 24 15 c21 14 73 16 388 16 382 0 543 -8 798 -41 173 -23 263 -46 360 -95
132 -67 220 -149 298 -280 93 -157 216 -344 242 -367 57 -52 112 -34 155 51
16 31 17 131 22 1284 6 1227 6 1250 -13 1243 -37 -14 -126 -72 -176 -114 -63
-53 -117 -121 -151 -187 -34 -67 -227 -269 -334 -349 -47 -35 -133 -91 -192
-124 l-106 -60 -641 -8 -641 -7 -22 22 -23 23 8 1461 c7 1543 6 1494 50 1511
13 5 807 -15 1164 -29 201 -9 268 -18 387 -56 384 -122 713 -406 919 -793 74
-140 156 -204 205 -160 19 17 19 41 19 956 l0 938 -1212 -2 c-667 -2 -1780 -5
-2473 -8z"/>
<path d="M51799 20082 c-98 -33 -194 -113 -239 -201 -67 -132 -67 -350 0 -482
21 -40 92 -117 142 -154 l28 -20 -88 -335 -89 -335 220 -3 c122 -1 224 1 228
5 17 18 320 795 340 873 30 118 31 287 0 382 -38 118 -118 207 -236 260 -70
31 -226 36 -306 10z"/>
<path d="M54523 19939 c-420 -40 -731 -227 -884 -531 -70 -140 -84 -207 -84
-413 1 -168 3 -185 28 -260 49 -147 140 -271 261 -357 160 -113 331 -179 706
-273 409 -102 501 -160 501 -310 0 -63 -17 -101 -65 -142 -132 -117 -508 -122
-823 -12 -108 38 -270 114 -346 162 -32 21 -61 37 -66 37 -4 0 -57 -120 -116
-267 -60 -148 -115 -283 -122 -301 l-13 -32 62 -41 c277 -179 747 -293 1138
-275 234 10 399 46 557 121 257 121 417 299 498 555 37 113 46 322 21 451 -36
185 -153 354 -319 460 -153 99 -292 148 -714 253 -292 73 -381 113 -430 194
-25 40 -30 102 -13 162 35 125 218 199 460 187 193 -10 362 -57 569 -158 67
-33 124 -59 126 -57 15 19 225 602 219 608 -5 5 -54 32 -108 60 -285 144 -687
214 -1043 179z"/>
<path d="M67033 19929 c-420 -40 -731 -227 -884 -531 -70 -140 -84 -207 -84
-413 1 -168 3 -185 28 -260 49 -147 140 -271 261 -357 160 -113 331 -179 706
-273 409 -102 501 -160 501 -310 0 -63 -17 -101 -65 -142 -132 -117 -508 -122
-823 -12 -108 38 -270 114 -346 162 -32 21 -61 37 -66 37 -4 0 -57 -120 -116
-267 -60 -148 -115 -283 -122 -301 l-13 -32 62 -41 c277 -179 747 -293 1138
-275 234 10 399 46 557 121 257 121 417 299 498 555 37 113 46 322 21 451 -36
185 -153 354 -319 460 -153 99 -292 148 -714 253 -292 73 -381 113 -430 194
-25 40 -30 102 -13 162 35 125 218 199 460 187 193 -10 362 -57 569 -158 67
-33 124 -59 126 -57 15 19 225 602 219 608 -5 5 -54 32 -108 60 -285 144 -687
214 -1043 179z"/>
<path d="M76885 19919 c-491 -50 -913 -343 -1135 -788 -220 -441 -211 -1038
21 -1470 73 -136 133 -215 254 -337 135 -136 226 -202 389 -280 212 -101 387
-138 656 -138 207 0 331 19 494 74 638 215 1030 854 968 1578 -38 445 -247
833 -584 1087 -106 80 -273 168 -398 209 -196 64 -441 88 -665 65z m359 -695
c239 -62 431 -269 508 -549 18 -69 22 -106 22 -260 0 -215 -15 -281 -95 -445
-45 -90 -64 -117 -138 -190 -139 -138 -276 -194 -476 -194 -130 0 -207 18
-315 71 -94 47 -219 167 -278 268 -47 80 -96 219 -111 315 -16 96 -13 286 5
381 54 284 234 509 473 589 126 42 276 47 405 14z"/>
<path d="M39720 18445 l0 -1455 345 0 345 0 2 746 3 746 335 -601 335 -601
170 0 170 0 334 615 c184 339 338 618 342 621 5 3 9 -339 9 -760 l0 -766 345
0 345 0 0 1273 c0 701 -3 1356 -7 1455 l-6 182 -306 0 -306 -1 -445 -826
c-245 -454 -449 -832 -455 -839 -7 -10 -132 207 -475 826 l-465 840 -307 0
-308 0 0 -1455z"/>
<path d="M44240 18445 l0 -1455 1065 0 1065 0 0 315 0 315 -695 0 -695 0 0
270 0 270 590 0 590 0 0 305 0 305 -590 0 -590 0 0 248 0 247 668 0 667 0 3
318 2 317 -1040 0 -1040 0 0 -1455z"/>
<path d="M47700 18435 l0 -1455 365 0 365 0 0 772 c0 756 0 772 19 753 10 -11
274 -359 586 -772 l567 -753 309 0 309 0 0 1455 0 1455 -365 0 -365 0 0 -770
c0 -423 -3 -770 -7 -770 -5 0 -269 347 -588 770 l-580 770 -307 0 -308 0 0
-1455z"/>
<path d="M59070 18425 l0 -1455 375 0 375 0 0 500 0 500 585 0 585 0 0 315 0
315 -585 0 -585 0 0 323 0 322 663 0 662 0 3 318 2 317 -1040 0 -1040 0 0
-1455z"/>
<path d="M63146 19848 c-16 -39 -1146 -2847 -1153 -2866 -4 -10 73 -12 378
-10 l384 3 101 278 c56 153 105 281 108 284 3 3 257 2 565 -2 l560 -8 24 -66
c13 -36 59 -162 102 -278 l78 -213 389 0 c308 0 389 3 385 13 -2 6 -264 656
-582 1442 -317 787 -580 1436 -582 1443 -4 9 -88 12 -375 12 l-369 0 -13 -32z
m553 -1256 c90 -244 161 -446 158 -448 -2 -2 -155 -3 -339 -2 l-335 3 153 420
c85 231 161 440 170 464 14 37 18 41 24 25 4 -10 80 -219 169 -462z"/>
<path d="M69560 18415 l0 -1455 375 0 375 0 0 572 0 571 272 -6 c149 -4 379
-7 510 -7 l238 0 0 -565 0 -565 375 0 375 0 0 1455 0 1455 -375 0 -375 0 0
-545 0 -545 -510 0 -510 0 0 545 0 545 -375 0 -375 0 0 -1455z"/>
<path d="M73530 18415 l0 -1455 375 0 375 0 0 1455 0 1455 -375 0 -375 0 0
-1455z"/>
<path d="M79840 18405 l0 -1455 365 0 365 0 0 772 c0 756 0 772 19 753 10 -11
274 -359 586 -772 l567 -753 309 0 309 0 0 1455 0 1455 -365 0 -365 0 0 -770
c0 -423 -3 -770 -7 -770 -5 0 -269 347 -588 770 l-580 770 -307 0 -308 0 0
-1455z"/>
</g>
</svg>
