<?xml version="1.0" standalone="no"?>
<!DOCTYPE svg PUBLIC "-//W3C//DTD SVG 20010904//EN"
 "http://www.w3.org/TR/2001/REC-SVG-20010904/DTD/svg10.dtd">
<svg version="1.0" xmlns="http://www.w3.org/2000/svg"
 width="5000.000000pt" height="5000.000000pt" viewBox="0 0 5000.000000 5000.000000"
 preserveAspectRatio="xMidYMid meet">

<g transform="translate(0.000000,5000.000000) scale(0.100000,-0.100000)"
fill="#000000" stroke="none">
<path d="M24005 46053 c-5247 -98 -10881 -1083 -16145 -2822 l-325 -107 -11
-3640 c-13 -3999 -30 -8938 -44 -12879 -9 -2387 -11 -2570 -30 -2860 -61 -946
-52 -1503 36 -2195 110 -863 374 -1862 659 -2490 505 -1112 1165 -2207 1994
-3310 1044 -1389 2312 -2723 3801 -3999 151 -130 399 -346 550 -480 814 -723
1543 -1316 2445 -1991 2077 -1552 4752 -3292 8039 -5229 l189 -111 146 76
c436 229 780 417 1166 637 2392 1364 5422 3501 8835 6231 608 486 845 679 920
750 41 39 185 174 320 300 864 810 1603 1550 2191 2196 1885 2070 3115 4010
3640 5738 54 178 114 412 160 622 29 131 30 148 40 535 11 421 3 2863 -9 2944
-7 44 -8 41 -80 -170 -305 -891 -696 -1933 -952 -2534 -95 -223 -583 -1193
-818 -1625 -953 -1756 -2032 -3224 -3148 -4284 -110 -105 -320 -317 -466 -471
-684 -722 -1395 -1378 -2383 -2201 -2100 -1747 -5141 -3927 -8956 -6422 -246
-161 -453 -292 -460 -292 -8 0 -30 10 -49 21 -74 46 -292 165 -735 404 -696
375 -1047 573 -1525 862 -2154 1302 -4719 3241 -7925 5992 -979 840 -1249
1084 -1736 1571 -536 534 -907 947 -1330 1475 -1552 1938 -2480 3967 -2734
5971 -59 472 -85 1005 -66 1384 8 158 15 1118 21 2935 4 1485 13 3580 19 4655
23 4162 32 7048 29 8817 l-3 1842 215 80 c2517 939 5751 1675 9095 2070 1575
186 2955 287 4820 352 476 17 2646 23 3190 10 3098 -76 6045 -433 9050 -1096
1606 -355 3079 -761 4681 -1292 l502 -166 6 -1321 c3 -726 11 -3534 17 -6239
l11 -4918 704 -1222 c731 -1269 756 -1307 817 -1307 53 0 83 73 97 234 6 68
10 916 10 2196 0 1147 5 3923 10 6170 5 2247 10 4879 11 5850 l2 1765 -139 53
c-696 264 -1811 622 -2824 905 -3950 1107 -8292 1795 -12520 1982 -1036 45
-2187 64 -3025 48z"/>
<path d="M18475 40473 c-254 -14 -498 -45 -702 -88 -125 -26 -151 -40 -288
-156 -134 -113 -257 -270 -271 -348 -4 -20 -20 -62 -35 -93 -75 -149 -189
-483 -257 -753 -317 -1247 -254 -2495 180 -3570 252 -625 617 -1180 1113
-1694 113 -118 117 -123 70 -97 -114 64 -339 222 -455 319 -334 279 -585 611
-679 900 -13 37 -26 67 -30 67 -19 0 -266 -72 -359 -104 -521 -183 -1086 -542
-1677 -1065 -168 -148 -614 -595 -781 -781 -550 -613 -1049 -1273 -1602 -2115
-174 -265 -195 -303 -406 -725 -379 -760 -605 -1295 -836 -1976 -432 -1277
-731 -2658 -956 -4424 -41 -323 -47 -394 -51 -620 -6 -312 8 -593 37 -705 73
-286 244 -284 485 6 63 75 136 181 330 481 375 579 906 1205 1311 1544 126
105 292 229 299 222 2 -2 -39 -82 -91 -178 -431 -788 -690 -1464 -823 -2152
-65 -333 -91 -620 -91 -1013 0 -1220 221 -2310 586 -2880 31 -49 122 -200 202
-335 237 -401 438 -704 680 -1029 666 -892 1481 -1713 2462 -2477 301 -235
349 -264 436 -264 39 0 47 4 64 32 40 67 27 139 -95 508 -466 1415 -758 2848
-850 4175 -19 270 -30 874 -15 830 6 -16 49 -203 96 -415 310 -1390 650 -2423
1139 -3460 282 -598 507 -979 925 -1565 801 -1121 1627 -2078 2245 -2601 44
-37 161 -140 260 -228 375 -336 612 -531 980 -808 507 -380 1139 -790 1685
-1093 58 -32 137 -77 175 -101 102 -62 212 -112 277 -125 49 -10 61 -9 95 7
59 29 76 71 69 174 -5 91 -7 97 -159 607 -302 1011 -692 2140 -1072 3106 -42
104 -74 191 -73 193 2 1 60 -64 129 -144 726 -847 1476 -1947 2236 -3281 295
-517 385 -691 550 -1066 168 -379 406 -1030 508 -1390 20 -68 103 -271 146
-357 23 -45 34 -58 52 -58 39 0 362 206 572 364 708 533 1413 1394 1978 2413
269 485 401 903 448 1417 16 177 6 532 -20 701 -68 451 -221 863 -467 1262
-86 139 -87 141 -486 678 -608 820 -1045 1458 -1405 2055 -318 528 -577 1035
-713 1395 -21 56 -72 186 -113 290 -236 599 -443 1243 -581 1805 -54 218 -73
281 -111 357 -76 154 -167 237 -340 308 -49 20 -163 72 -253 115 -691 334
-1414 818 -2042 1366 -299 261 -755 736 -1015 1059 -543 673 -973 1448 -1245
2243 -166 483 -234 785 -304 1342 -121 959 -28 1845 279 2675 94 253 287 676
302 661 3 -2 -32 -152 -76 -333 -89 -364 -149 -652 -180 -873 -126 -878 -40
-1648 263 -2356 30 -71 78 -205 106 -298 151 -503 412 -1074 708 -1551 912
-1468 2272 -2399 3957 -2709 77 -15 212 -46 300 -71 394 -109 523 -99 455 36
-43 84 -193 218 -570 509 -388 300 -802 706 -1151 1130 -468 568 -889 1215
-1279 1965 l-73 140 79 -75 c44 -42 167 -161 274 -265 307 -300 517 -491 775
-705 877 -730 1809 -1267 2854 -1645 389 -140 868 -418 1366 -792 482 -362
869 -707 1420 -1264 564 -571 1010 -1078 1680 -1914 291 -363 475 -565 645
-707 387 -325 819 -534 1370 -663 102 -24 316 -75 475 -114 455 -109 801 -181
1100 -226 153 -23 463 -100 568 -141 181 -69 257 -146 257 -258 0 -85 24 -187
57 -248 94 -173 320 -165 603 22 132 88 333 243 500 386 163 139 566 545 700
704 586 697 905 1386 960 2071 5 74 15 196 21 272 25 308 -32 493 -176 570
-40 22 -42 22 -685 21 -665 0 -842 -7 -1500 -54 -794 -58 -2033 -192 -3008
-326 -63 -8 -116 -13 -119 -10 -7 6 291 201 406 265 52 29 281 147 510 261
229 115 465 238 525 274 59 36 111 66 115 66 3 0 143 43 311 95 588 184 901
245 1415 275 94 5 208 17 255 25 47 8 195 28 330 45 302 37 411 54 565 86 583
123 1134 435 1769 1001 76 68 116 98 111 84 -4 -12 -42 -97 -84 -189 -134
-287 -177 -410 -202 -583 -15 -107 -7 -192 35 -369 79 -333 157 -454 291 -454
140 0 296 141 609 547 798 1039 1301 2083 1386 2877 6 58 23 164 37 235 22
107 26 158 26 290 0 177 -13 250 -71 378 l-30 66 -114 -38 c-373 -127 -590
-259 -933 -570 -55 -50 -106 -91 -113 -91 -37 0 -247 98 -323 151 l-27 19 21
55 c12 33 16 59 11 64 -5 5 -227 147 -494 316 -1177 747 -1226 780 -1331 886
-120 120 -221 269 -260 382 -28 79 -38 144 -21 133 13 -8 465 -62 752 -90 379
-38 733 -69 1680 -146 470 -38 925 -79 1011 -90 166 -21 239 -25 239 -12 0 22
-251 448 -428 727 -746 1175 -1746 2378 -2792 3360 -550 516 -1134 995 -1696
1390 -77 54 -145 105 -151 113 -23 28 -15 930 16 1902 l8 245 -25 40 c-45 72
-257 346 -390 505 -868 1039 -2033 2049 -3292 2852 -2663 1699 -5792 2583
-9202 2601 -218 1 -399 -1 -403 -5 -4 -3 67 -98 156 -210 481 -601 798 -1096
1047 -1633 113 -242 270 -637 243 -610 -5 6 -72 109 -148 230 -174 275 -237
369 -350 520 -410 549 -941 1014 -1568 1373 -161 92 -654 273 -1107 407 -716
212 -1412 340 -2038 375 -159 9 -490 11 -615 3z m927 -2380 c738 -698 1369
-1237 2281 -1947 174 -136 317 -249 317 -251 0 -6 -12 -1 -260 103 -1190 498
-2037 772 -2475 798 -188 12 -248 -17 -295 -143 -102 -272 53 -831 535 -1933
179 -407 237 -548 233 -562 -5 -13 -161 227 -273 417 -599 1022 -946 2222
-1026 3550 -12 197 -7 865 6 897 6 14 78 -54 361 -341 194 -197 462 -461 596
-588z m12001 -5079 c1101 -295 2005 -539 2010 -543 4 -4 -6 -36 -22 -72 -92
-205 -87 -482 14 -754 97 -262 273 -520 549 -805 55 -57 94 -100 86 -95 -8 5
-60 41 -115 81 -210 151 -407 256 -585 312 -150 47 -220 57 -395 57 -174 -1
-269 -18 -416 -74 -63 -24 -78 -26 -133 -19 -75 10 -212 76 -311 150 -204 153
-441 450 -675 845 l-99 166 -98 74 c-406 310 -1193 835 -1678 1118 -164 96
-164 95 -146 95 6 0 913 -241 2014 -536z"/>
</g>
</svg>
